<svg xmlns="http://www.w3.org/2000/svg" viewBox="0 22 1085 668" font-family="'Segoe UI', Helvetica, Arial, sans-serif"><defs><filter id="sh" x="-6%" y="-6%" width="112%" height="115%"><feDropShadow dx="0" dy="2" stdDeviation="4" flood-color="#14532d" flood-opacity="0.20"/></filter></defs><rect x="0" y="22" width="1085" height="668" fill="#ffffff"/><circle cx="295" cy="111" r="3.2" fill="#2563eb"/><path d="M295,111 H330 V81 H390" fill="none" stroke="#94a3b8" stroke-width="1.5"/><path d="M390,81 l-9,-4.5 l0,9 z" fill="#94a3b8"/><rect x="315" y="87" width="40" height="19" rx="9" fill="#fff" stroke="#cbd5e1" stroke-width="1"/><text x="335" y="100.5" font-size="11" font-weight="700" text-anchor="middle" fill="#475569" font-family="'Segoe UI', Helvetica, Arial, sans-serif">N:1</text><circle cx="295" cy="212" r="3.2" fill="#2563eb"/><path d="M295,212 H362 V361 H390" fill="none" stroke="#94a3b8" stroke-width="1.5"/><path d="M390,361 l-9,-4.5 l0,9 z" fill="#94a3b8"/><rect x="315" y="188" width="40" height="19" rx="9" fill="#fff" stroke="#cbd5e1" stroke-width="1"/><text x="335" y="201.5" font-size="11" font-weight="700" text-anchor="middle" fill="#475569" font-family="'Segoe UI', Helvetica, Arial, sans-serif">N:N</text><circle cx="295" cy="416" r="3.2" fill="#2563eb"/><path d="M295,416 H372 V97 H390" fill="none" stroke="#94a3b8" stroke-width="1.5"/><path d="M390,97 l-9,-4.5 l0,9 z" fill="#94a3b8"/><rect x="315" y="392" width="40" height="19" rx="9" fill="#fff" stroke="#cbd5e1" stroke-width="1"/><text x="335" y="405.5" font-size="11" font-weight="700" text-anchor="middle" fill="#475569" font-family="'Segoe UI', Helvetica, Arial, sans-serif">N:1</text><circle cx="295" cy="438" r="3.2" fill="#2563eb"/><path d="M295,438 H346 V377 H390" fill="none" stroke="#94a3b8" stroke-width="1.5"/><path d="M390,377 l-9,-4.5 l0,9 z" fill="#94a3b8"/><rect x="315" y="414" width="40" height="19" rx="9" fill="#fff" stroke="#cbd5e1" stroke-width="1"/><text x="335" y="427.5" font-size="11" font-weight="700" text-anchor="middle" fill="#475569" font-family="'Segoe UI', Helvetica, Arial, sans-serif">N:1</text><circle cx="652" cy="457" r="3.2" fill="#2563eb"/><path d="M652,457 H692 V449 H730" fill="none" stroke="#94a3b8" stroke-width="1.5"/><path d="M730,449 l-9,-4.5 l0,9 z" fill="#94a3b8"/><rect x="672" y="433" width="40" height="19" rx="9" fill="#fff" stroke="#cbd5e1" stroke-width="1"/><text x="692" y="446.5" font-size="11" font-weight="700" text-anchor="middle" fill="#475569" font-family="'Segoe UI', Helvetica, Arial, sans-serif">N:1</text><circle cx="640" cy="155" r="3.2" fill="#2563eb"/><path d="M640,155 H682 V369 H652" fill="none" stroke="#94a3b8" stroke-width="1.5"/><path d="M652,369 l9,-4.5 l0,9 z" fill="#94a3b8"/><rect x="660" y="131" width="40" height="19" rx="9" fill="#fff" stroke="#cbd5e1" stroke-width="1"/><text x="680" y="144.5" font-size="11" font-weight="700" text-anchor="middle" fill="#475569" font-family="'Segoe UI', Helvetica, Arial, sans-serif">N:N</text><circle cx="985" cy="493" r="3.2" fill="#2563eb"/><path d="M985,493 H1018 V449 H985" fill="none" stroke="#94a3b8" stroke-width="1.5"/><path d="M985,449 l9,-4.5 l0,9 z" fill="#94a3b8"/><rect x="1020" y="461" width="40" height="19" rx="9" fill="#fff" stroke="#cbd5e1" stroke-width="1"/><text x="1040" y="474.5" font-size="11" font-weight="700" text-anchor="middle" fill="#475569" font-family="'Segoe UI', Helvetica, Arial, sans-serif">tree</text><rect x="40" y="40" width="255" height="270" rx="4" fill="#18e074" stroke="#0c8f4c" stroke-width="1.5" filter="url(#sh)"/><text x="54" y="70" font-size="15.5" font-weight="800" fill="#08321d">orders</text><circle cx="64" cy="89" r="2.5" fill="#0a3a20"/><text x="76" y="93" font-size="13.5" fill="#0d3a22">_id</text><circle cx="64" cy="111" r="2.5" fill="#0a3a20"/><text x="76" y="115" font-size="13.5" fill="#0d3a22">customerId</text><circle cx="64" cy="133" r="2.5" fill="#0a3a20"/><text x="76" y="137" font-size="13.5" fill="#0d3a22">orderDate</text><circle cx="64" cy="155" r="2.5" fill="#0a3a20"/><text x="76" y="159" font-size="13.5" fill="#0d3a22">status</text><rect x="54" y="175" width="227" height="123" rx="3" fill="#ffffff" stroke="#155c37" stroke-width="1.5"/><text x="65" y="193" font-size="13.5" font-weight="800" fill="#08321d">items <tspan fill="#0c8f4c">[ ]</tspan></text><circle cx="80" cy="212" r="2.5" fill="#0a3a20"/><text x="92" y="216" font-size="13" fill="#0d3a22">productId</text><circle cx="80" cy="234" r="2.5" fill="#0a3a20"/><text x="92" y="238" font-size="13" fill="#0d3a22">name</text><circle cx="80" cy="256" r="2.5" fill="#0a3a20"/><text x="92" y="260" font-size="13" fill="#0d3a22">quantity</text><circle cx="80" cy="278" r="2.5" fill="#0a3a20"/><text x="92" y="282" font-size="13" fill="#0d3a22">listPrice</text><rect x="40" y="345" width="255" height="160" rx="4" fill="#18e074" stroke="#0c8f4c" stroke-width="1.5" filter="url(#sh)"/><text x="54" y="375" font-size="15.5" font-weight="800" fill="#08321d">reviews</text><circle cx="64" cy="394" r="2.5" fill="#0a3a20"/><text x="76" y="398" font-size="13.5" fill="#0d3a22">_id</text><circle cx="64" cy="416" r="2.5" fill="#0a3a20"/><text x="76" y="420" font-size="13.5" fill="#0d3a22">authorId</text><circle cx="64" cy="438" r="2.5" fill="#0a3a20"/><text x="76" y="442" font-size="13.5" fill="#0d3a22">productId</text><circle cx="64" cy="460" r="2.5" fill="#0a3a20"/><text x="76" y="464" font-size="13.5" fill="#0d3a22">rating</text><circle cx="64" cy="482" r="2.5" fill="#0a3a20"/><text x="76" y="486" font-size="13.5" fill="#0d3a22">authorName</text><rect x="390" y="40" width="250" height="226" rx="4" fill="#18e074" stroke="#0c8f4c" stroke-width="1.5" filter="url(#sh)"/><text x="404" y="70" font-size="15.5" font-weight="800" fill="#08321d">customers</text><circle cx="414" cy="89" r="2.5" fill="#0a3a20"/><text x="426" y="93" font-size="13.5" fill="#0d3a22">_id</text><circle cx="414" cy="111" r="2.5" fill="#0a3a20"/><text x="426" y="115" font-size="13.5" fill="#0d3a22">name</text><circle cx="414" cy="133" r="2.5" fill="#0a3a20"/><text x="426" y="137" font-size="13.5" fill="#0d3a22">email</text><circle cx="414" cy="155" r="2.5" fill="#0a3a20"/><text x="426" y="159" font-size="13.5" fill="#0d3a22">wishlistProductIds</text><rect x="404" y="175" width="222" height="79" rx="3" fill="#ffffff" stroke="#155c37" stroke-width="1.5"/><text x="415" y="193" font-size="13.5" font-weight="800" fill="#08321d">card <tspan fill="#0c8f4c">{ }</tspan></text><circle cx="430" cy="212" r="2.5" fill="#0a3a20"/><text x="442" y="216" font-size="13" fill="#0d3a22">last4</text><circle cx="430" cy="234" r="2.5" fill="#0a3a20"/><text x="442" y="238" font-size="13" fill="#0d3a22">token</text><rect x="390" y="320" width="262" height="336" rx="4" fill="#18e074" stroke="#0c8f4c" stroke-width="1.5" filter="url(#sh)"/><text x="404" y="350" font-size="15.5" font-weight="800" fill="#08321d">products</text><circle cx="414" cy="369" r="2.5" fill="#0a3a20"/><text x="426" y="373" font-size="13.5" fill="#0d3a22">_id</text><circle cx="414" cy="391" r="2.5" fill="#0a3a20"/><text x="426" y="395" font-size="13.5" fill="#0d3a22">name</text><circle cx="414" cy="413" r="2.5" fill="#0a3a20"/><text x="426" y="417" font-size="13.5" fill="#0d3a22">listPrice</text><circle cx="414" cy="435" r="2.5" fill="#0a3a20"/><text x="426" y="439" font-size="13.5" fill="#0d3a22">productType</text><circle cx="414" cy="457" r="2.5" fill="#0a3a20"/><text x="426" y="461" font-size="13.5" fill="#0d3a22">categoryId</text><circle cx="414" cy="479" r="2.5" fill="#0a3a20"/><text x="426" y="483" font-size="13.5" fill="#0d3a22">avgRating</text><rect x="404" y="499" width="234" height="57" rx="3" fill="#ffffff" stroke="#155c37" stroke-width="1.5"/><text x="415" y="517" font-size="13.5" font-weight="800" fill="#08321d">spec <tspan fill="#0c8f4c">{ }</tspan></text><circle cx="430" cy="536" r="2.5" fill="#0a3a20"/><text x="442" y="540" font-size="13" fill="#0d3a22">requiredRam</text><rect x="404" y="565" width="234" height="79" rx="3" fill="#ffffff" stroke="#155c37" stroke-width="1.5"/><text x="415" y="583" font-size="13.5" font-weight="800" fill="#08321d">attributes <tspan fill="#0c8f4c">[ ]</tspan></text><circle cx="430" cy="602" r="2.5" fill="#0a3a20"/><text x="442" y="606" font-size="13" fill="#0d3a22">k</text><circle cx="430" cy="624" r="2.5" fill="#0a3a20"/><text x="442" y="628" font-size="13" fill="#0d3a22">v</text><rect x="730" y="400" width="255" height="160" rx="4" fill="#18e074" stroke="#0c8f4c" stroke-width="1.5" filter="url(#sh)"/><text x="744" y="430" font-size="15.5" font-weight="800" fill="#08321d">categories</text><circle cx="754" cy="449" r="2.5" fill="#0a3a20"/><text x="766" y="453" font-size="13.5" fill="#0d3a22">_id</text><circle cx="754" cy="471" r="2.5" fill="#0a3a20"/><text x="766" y="475" font-size="13.5" fill="#0d3a22">name</text><circle cx="754" cy="493" r="2.5" fill="#0a3a20"/><text x="766" y="497" font-size="13.5" fill="#0d3a22">parentId</text><circle cx="754" cy="515" r="2.5" fill="#0a3a20"/><text x="766" y="519" font-size="13.5" fill="#0d3a22">ancestors</text><circle cx="754" cy="537" r="2.5" fill="#0a3a20"/><text x="766" y="541" font-size="13.5" fill="#0d3a22">path</text></svg>