<svg xmlns="http://www.w3.org/2000/svg" viewBox="0 0 877 508" font-family="'Segoe UI', Helvetica, Arial, sans-serif"><defs><filter id="sh" x="-6%" y="-6%" width="112%" height="114%"><feDropShadow dx="0" dy="2" stdDeviation="4" flood-color="#14532d" flood-opacity="0.22"/></filter></defs><rect width="877" height="508" fill="#ffffff"/><rect x="30" y="28" width="250" height="248" rx="4" fill="#18e074" stroke="#0c8f4c" stroke-width="1.5" filter="url(#sh)"/><text x="44" y="58" font-size="15.5" font-weight="800" fill="#08321d">customers</text><circle cx="54" cy="77" r="2.5" fill="#0a3a20"/><text x="66" y="81" font-size="13.5" fill="#0d3a22">_id</text><circle cx="54" cy="99" r="2.5" fill="#0a3a20"/><text x="66" y="103" font-size="13.5" fill="#0d3a22">name</text><circle cx="54" cy="121" r="2.5" fill="#0a3a20"/><text x="66" y="125" font-size="13.5" fill="#0d3a22">email</text><circle cx="54" cy="143" r="2.5" fill="#0a3a20"/><text x="66" y="147" font-size="13.5" fill="#0d3a22">state</text><circle cx="54" cy="165" r="2.5" fill="#0a3a20"/><text x="66" y="169" font-size="13.5" fill="#0d3a22">wishlistProductIds</text><rect x="44" y="185" width="222" height="79" rx="3" fill="#ffffff" stroke="#155c37" stroke-width="1.5"/><text x="55" y="203" font-size="13.5" font-weight="800" fill="#08321d">card <tspan fill="#0c8f4c">{ }</tspan></text><circle cx="70" cy="222" r="2.5" fill="#0a3a20"/><text x="82" y="226" font-size="13" fill="#0d3a22">last4</text><circle cx="70" cy="244" r="2.5" fill="#0a3a20"/><text x="82" y="248" font-size="13" fill="#0d3a22">token</text><rect x="30" y="305" width="250" height="160" rx="4" fill="#18e074" stroke="#0c8f4c" stroke-width="1.5" filter="url(#sh)"/><text x="44" y="335" font-size="15.5" font-weight="800" fill="#08321d">reviews</text><circle cx="54" cy="354" r="2.5" fill="#0a3a20"/><text x="66" y="358" font-size="13.5" fill="#0d3a22">_id</text><circle cx="54" cy="376" r="2.5" fill="#0a3a20"/><text x="66" y="380" font-size="13.5" fill="#0d3a22">authorId</text><circle cx="54" cy="398" r="2.5" fill="#0a3a20"/><text x="66" y="402" font-size="13.5" fill="#0d3a22">productId</text><circle cx="54" cy="420" r="2.5" fill="#0a3a20"/><text x="66" y="424" font-size="13.5" fill="#0d3a22">rating</text><circle cx="54" cy="442" r="2.5" fill="#0a3a20"/><text x="66" y="446" font-size="13.5" fill="#0d3a22">authorName</text><rect x="305" y="28" width="255" height="270" rx="4" fill="#18e074" stroke="#0c8f4c" stroke-width="1.5" filter="url(#sh)"/><text x="319" y="58" font-size="15.5" font-weight="800" fill="#08321d">orders</text><circle cx="329" cy="77" r="2.5" fill="#0a3a20"/><text x="341" y="81" font-size="13.5" fill="#0d3a22">_id</text><circle cx="329" cy="99" r="2.5" fill="#0a3a20"/><text x="341" y="103" font-size="13.5" fill="#0d3a22">customerId</text><circle cx="329" cy="121" r="2.5" fill="#0a3a20"/><text x="341" y="125" font-size="13.5" fill="#0d3a22">orderDate</text><circle cx="329" cy="143" r="2.5" fill="#0a3a20"/><text x="341" y="147" font-size="13.5" fill="#0d3a22">status</text><rect x="319" y="163" width="227" height="123" rx="3" fill="#ffffff" stroke="#155c37" stroke-width="1.5"/><text x="330" y="181" font-size="13.5" font-weight="800" fill="#08321d">items <tspan fill="#0c8f4c">[ ]</tspan></text><circle cx="345" cy="200" r="2.5" fill="#0a3a20"/><text x="357" y="204" font-size="13" fill="#0d3a22">productId</text><circle cx="345" cy="222" r="2.5" fill="#0a3a20"/><text x="357" y="226" font-size="13" fill="#0d3a22">name</text><circle cx="345" cy="244" r="2.5" fill="#0a3a20"/><text x="357" y="248" font-size="13" fill="#0d3a22">quantity</text><circle cx="345" cy="266" r="2.5" fill="#0a3a20"/><text x="357" y="270" font-size="13" fill="#0d3a22">listPrice</text><rect x="305" y="330" width="255" height="160" rx="4" fill="#18e074" stroke="#0c8f4c" stroke-width="1.5" filter="url(#sh)"/><text x="319" y="360" font-size="15.5" font-weight="800" fill="#08321d">categories</text><circle cx="329" cy="379" r="2.5" fill="#0a3a20"/><text x="341" y="383" font-size="13.5" fill="#0d3a22">_id</text><circle cx="329" cy="401" r="2.5" fill="#0a3a20"/><text x="341" y="405" font-size="13.5" fill="#0d3a22">name</text><circle cx="329" cy="423" r="2.5" fill="#0a3a20"/><text x="341" y="427" font-size="13.5" fill="#0d3a22">parentId</text><circle cx="329" cy="445" r="2.5" fill="#0a3a20"/><text x="341" y="449" font-size="13.5" fill="#0d3a22">ancestors</text><circle cx="329" cy="467" r="2.5" fill="#0a3a20"/><text x="341" y="471" font-size="13.5" fill="#0d3a22">path</text><rect x="585" y="28" width="262" height="336" rx="4" fill="#18e074" stroke="#0c8f4c" stroke-width="1.5" filter="url(#sh)"/><text x="599" y="58" font-size="15.5" font-weight="800" fill="#08321d">products</text><circle cx="609" cy="77" r="2.5" fill="#0a3a20"/><text x="621" y="81" font-size="13.5" fill="#0d3a22">_id</text><circle cx="609" cy="99" r="2.5" fill="#0a3a20"/><text x="621" y="103" font-size="13.5" fill="#0d3a22">name</text><circle cx="609" cy="121" r="2.5" fill="#0a3a20"/><text x="621" y="125" font-size="13.5" fill="#0d3a22">listPrice</text><circle cx="609" cy="143" r="2.5" fill="#0a3a20"/><text x="621" y="147" font-size="13.5" fill="#0d3a22">productType</text><circle cx="609" cy="165" r="2.5" fill="#0a3a20"/><text x="621" y="169" font-size="13.5" fill="#0d3a22">categoryId</text><circle cx="609" cy="187" r="2.5" fill="#0a3a20"/><text x="621" y="191" font-size="13.5" fill="#0d3a22">avgRating</text><rect x="599" y="207" width="234" height="57" rx="3" fill="#ffffff" stroke="#155c37" stroke-width="1.5"/><text x="610" y="225" font-size="13.5" font-weight="800" fill="#08321d">spec <tspan fill="#0c8f4c">{ }</tspan></text><circle cx="625" cy="244" r="2.5" fill="#0a3a20"/><text x="637" y="248" font-size="13" fill="#0d3a22">requiredRam</text><rect x="599" y="273" width="234" height="79" rx="3" fill="#ffffff" stroke="#155c37" stroke-width="1.5"/><text x="610" y="291" font-size="13.5" font-weight="800" fill="#08321d">attributes <tspan fill="#0c8f4c">[ ]</tspan></text><circle cx="625" cy="310" r="2.5" fill="#0a3a20"/><text x="637" y="314" font-size="13" fill="#0d3a22">k</text><circle cx="625" cy="332" r="2.5" fill="#0a3a20"/><text x="637" y="336" font-size="13" fill="#0d3a22">v</text></svg>