<svg xmlns="http://www.w3.org/2000/svg" viewBox="0 0 840 842" font-family="'Segoe UI', Helvetica, Arial, sans-serif"><defs><pattern id="dots" width="20" height="20" patternUnits="userSpaceOnUse"><circle cx="2" cy="2" r="1.1" fill="#dde5ee"/></pattern><filter id="sh" x="-8%" y="-8%" width="116%" height="124%"><feDropShadow dx="0" dy="3" stdDeviation="6" flood-color="#1e293b" flood-opacity="0.10"/></filter></defs><rect width="840" height="842" fill="#f7f9fc"/><rect width="840" height="842" fill="url(#dots)"/><path d="M344,136 H400 V86 H480" fill="none" stroke="#94a3b8" stroke-width="1.5" stroke-dasharray="5,4"/><line x1="474" y1="81" x2="474" y2="91" stroke="#94a3b8" stroke-width="1.5"/><line x1="350" y1="132" x2="350" y2="140" stroke="#94a3b8" stroke-width="1.5"/><path d="M44,381 H22 V86 H44" fill="none" stroke="#94a3b8" stroke-width="1.5" stroke-dasharray="5,4"/><line x1="38" y1="81" x2="38" y2="91" stroke="#94a3b8" stroke-width="1.5"/><line x1="38" y1="377" x2="38" y2="385" stroke="#94a3b8" stroke-width="1.5"/><path d="M344,406 H420 V526 H480" fill="none" stroke="#94a3b8" stroke-width="1.5" stroke-dasharray="5,4"/><line x1="474" y1="521" x2="474" y2="531" stroke="#94a3b8" stroke-width="1.5"/><line x1="350" y1="402" x2="350" y2="410" stroke="#94a3b8" stroke-width="1.5"/><path d="M344,676 H388 V86 H480" fill="none" stroke="#94a3b8" stroke-width="1.5" stroke-dasharray="5,4"/><line x1="474" y1="81" x2="474" y2="91" stroke="#94a3b8" stroke-width="1.5"/><line x1="350" y1="672" x2="350" y2="680" stroke="#94a3b8" stroke-width="1.5"/><path d="M344,701 H436 V526 H480" fill="none" stroke="#94a3b8" stroke-width="1.5" stroke-dasharray="5,4"/><line x1="474" y1="521" x2="474" y2="531" stroke="#94a3b8" stroke-width="1.5"/><line x1="350" y1="697" x2="350" y2="705" stroke="#94a3b8" stroke-width="1.5"/><g filter="url(#sh)"><rect x="44" y="30" width="300" height="199" rx="10" fill="#ffffff" stroke="#dbe3ec" stroke-width="1.3"/></g><path d="M44,42 a10,10 0 0 1 10,-10 h280 a10,10 0 0 1 10,10 v26 h-300 z" fill="#eef2f7"/><line x1="44" y1="68" x2="344" y2="68" stroke="#dbe3ec" stroke-width="1.1"/><circle cx="58" cy="43" r="1.5" fill="#94a3b8"/><circle cx="58" cy="49" r="1.5" fill="#94a3b8"/><circle cx="58" cy="55" r="1.5" fill="#94a3b8"/><circle cx="62" cy="43" r="1.5" fill="#94a3b8"/><circle cx="62" cy="49" r="1.5" fill="#94a3b8"/><circle cx="62" cy="55" r="1.5" fill="#94a3b8"/><text x="74" y="55" font-size="15" font-weight="700" fill="#0f172a">orders</text><g stroke="#16a34a" stroke-width="1.6" fill="none" stroke-linecap="round"><circle cx="59" cy="86" r="3.1"/><line x1="62" y1="86" x2="69" y2="86"/><line x1="66" y1="86" x2="66" y2="89"/><line x1="69" y1="86" x2="69" y2="89"/></g><text x="78" y="90" font-size="13.5" font-weight="600" fill="#1f2b38">_id</text><text x="328" y="90" font-size="13" text-anchor="end" font-family="Consolas,monospace" fill="#94a3b8">{}</text><text x="78" y="115" font-size="13.5" font-weight="500" fill="#1f2b38">orderId</text><text x="328" y="115" font-size="13" text-anchor="end" font-family="Consolas,monospace" fill="#5b6b7b">string</text><g stroke="#0d9488" stroke-width="1.6" fill="none"><circle cx="59" cy="136" r="3"/><circle cx="65" cy="136" r="3"/></g><text x="78" y="140" font-size="13.5" font-weight="500" fill="#1f2b38">customerId</text><text x="328" y="140" font-size="13" text-anchor="end" font-family="Consolas,monospace" fill="#5b6b7b">string</text><text x="78" y="165" font-size="13.5" font-weight="500" fill="#1f2b38">orderDate</text><text x="328" y="165" font-size="13" text-anchor="end" font-family="Consolas,monospace" fill="#5b6b7b">date</text><text x="78" y="190" font-size="13.5" font-weight="500" fill="#1f2b38">status</text><text x="328" y="190" font-size="13" text-anchor="end" font-family="Consolas,monospace" fill="#5b6b7b">string</text><g filter="url(#sh)"><rect x="44" y="300" width="300" height="199" rx="10" fill="#ffffff" stroke="#dbe3ec" stroke-width="1.3"/></g><path d="M44,312 a10,10 0 0 1 10,-10 h280 a10,10 0 0 1 10,10 v26 h-300 z" fill="#eef2f7"/><line x1="44" y1="338" x2="344" y2="338" stroke="#dbe3ec" stroke-width="1.1"/><circle cx="58" cy="313" r="1.5" fill="#94a3b8"/><circle cx="58" cy="319" r="1.5" fill="#94a3b8"/><circle cx="58" cy="325" r="1.5" fill="#94a3b8"/><circle cx="62" cy="313" r="1.5" fill="#94a3b8"/><circle cx="62" cy="319" r="1.5" fill="#94a3b8"/><circle cx="62" cy="325" r="1.5" fill="#94a3b8"/><text x="74" y="325" font-size="15" font-weight="700" fill="#0f172a">orderLines</text><g stroke="#16a34a" stroke-width="1.6" fill="none" stroke-linecap="round"><circle cx="59" cy="356" r="3.1"/><line x1="62" y1="356" x2="69" y2="356"/><line x1="66" y1="356" x2="66" y2="359"/><line x1="69" y1="356" x2="69" y2="359"/></g><text x="78" y="360" font-size="13.5" font-weight="600" fill="#1f2b38">_id</text><text x="328" y="360" font-size="13" text-anchor="end" font-family="Consolas,monospace" fill="#94a3b8">{}</text><g stroke="#0d9488" stroke-width="1.6" fill="none"><circle cx="59" cy="381" r="3"/><circle cx="65" cy="381" r="3"/></g><text x="78" y="385" font-size="13.5" font-weight="500" fill="#1f2b38">orderId</text><text x="328" y="385" font-size="13" text-anchor="end" font-family="Consolas,monospace" fill="#5b6b7b">string</text><g stroke="#0d9488" stroke-width="1.6" fill="none"><circle cx="59" cy="406" r="3"/><circle cx="65" cy="406" r="3"/></g><text x="78" y="410" font-size="13.5" font-weight="500" fill="#1f2b38">productId</text><text x="328" y="410" font-size="13" text-anchor="end" font-family="Consolas,monospace" fill="#5b6b7b">string</text><text x="78" y="435" font-size="13.5" font-weight="500" fill="#1f2b38">quantity</text><text x="328" y="435" font-size="13" text-anchor="end" font-family="Consolas,monospace" fill="#5b6b7b">int</text><text x="78" y="460" font-size="13.5" font-weight="500" fill="#1f2b38">listPrice</text><text x="328" y="460" font-size="13" text-anchor="end" font-family="Consolas,monospace" fill="#5b6b7b">double</text><g filter="url(#sh)"><rect x="44" y="570" width="300" height="224" rx="10" fill="#ffffff" stroke="#dbe3ec" stroke-width="1.3"/></g><path d="M44,582 a10,10 0 0 1 10,-10 h280 a10,10 0 0 1 10,10 v26 h-300 z" fill="#eef2f7"/><line x1="44" y1="608" x2="344" y2="608" stroke="#dbe3ec" stroke-width="1.1"/><circle cx="58" cy="583" r="1.5" fill="#94a3b8"/><circle cx="58" cy="589" r="1.5" fill="#94a3b8"/><circle cx="58" cy="595" r="1.5" fill="#94a3b8"/><circle cx="62" cy="583" r="1.5" fill="#94a3b8"/><circle cx="62" cy="589" r="1.5" fill="#94a3b8"/><circle cx="62" cy="595" r="1.5" fill="#94a3b8"/><text x="74" y="595" font-size="15" font-weight="700" fill="#0f172a">reviews</text><g stroke="#16a34a" stroke-width="1.6" fill="none" stroke-linecap="round"><circle cx="59" cy="626" r="3.1"/><line x1="62" y1="626" x2="69" y2="626"/><line x1="66" y1="626" x2="66" y2="629"/><line x1="69" y1="626" x2="69" y2="629"/></g><text x="78" y="630" font-size="13.5" font-weight="600" fill="#1f2b38">_id</text><text x="328" y="630" font-size="13" text-anchor="end" font-family="Consolas,monospace" fill="#94a3b8">{}</text><text x="78" y="655" font-size="13.5" font-weight="500" fill="#1f2b38">reviewId</text><text x="328" y="655" font-size="13" text-anchor="end" font-family="Consolas,monospace" fill="#5b6b7b">string</text><g stroke="#0d9488" stroke-width="1.6" fill="none"><circle cx="59" cy="676" r="3"/><circle cx="65" cy="676" r="3"/></g><text x="78" y="680" font-size="13.5" font-weight="500" fill="#1f2b38">authorId</text><text x="328" y="680" font-size="13" text-anchor="end" font-family="Consolas,monospace" fill="#5b6b7b">string</text><g stroke="#0d9488" stroke-width="1.6" fill="none"><circle cx="59" cy="701" r="3"/><circle cx="65" cy="701" r="3"/></g><text x="78" y="705" font-size="13.5" font-weight="500" fill="#1f2b38">productId</text><text x="328" y="705" font-size="13" text-anchor="end" font-family="Consolas,monospace" fill="#5b6b7b">string</text><text x="78" y="730" font-size="13.5" font-weight="500" fill="#1f2b38">rating</text><text x="328" y="730" font-size="13" text-anchor="end" font-family="Consolas,monospace" fill="#5b6b7b">int</text><text x="78" y="755" font-size="13.5" font-weight="500" fill="#1f2b38">content</text><text x="328" y="755" font-size="13" text-anchor="end" font-family="Consolas,monospace" fill="#5b6b7b">string</text><g filter="url(#sh)"><rect x="480" y="30" width="320" height="249" rx="10" fill="#ffffff" stroke="#dbe3ec" stroke-width="1.3"/></g><path d="M480,42 a10,10 0 0 1 10,-10 h300 a10,10 0 0 1 10,10 v26 h-320 z" fill="#eef2f7"/><line x1="480" y1="68" x2="800" y2="68" stroke="#dbe3ec" stroke-width="1.1"/><circle cx="494" cy="43" r="1.5" fill="#94a3b8"/><circle cx="494" cy="49" r="1.5" fill="#94a3b8"/><circle cx="494" cy="55" r="1.5" fill="#94a3b8"/><circle cx="498" cy="43" r="1.5" fill="#94a3b8"/><circle cx="498" cy="49" r="1.5" fill="#94a3b8"/><circle cx="498" cy="55" r="1.5" fill="#94a3b8"/><text x="510" y="55" font-size="15" font-weight="700" fill="#0f172a">customers</text><g stroke="#16a34a" stroke-width="1.6" fill="none" stroke-linecap="round"><circle cx="495" cy="86" r="3.1"/><line x1="498" y1="86" x2="505" y2="86"/><line x1="502" y1="86" x2="502" y2="89"/><line x1="505" y1="86" x2="505" y2="89"/></g><text x="514" y="90" font-size="13.5" font-weight="600" fill="#1f2b38">_id</text><text x="784" y="90" font-size="13" text-anchor="end" font-family="Consolas,monospace" fill="#94a3b8">{}</text><text x="514" y="115" font-size="13.5" font-weight="500" fill="#1f2b38">customerId</text><text x="784" y="115" font-size="13" text-anchor="end" font-family="Consolas,monospace" fill="#5b6b7b">string</text><text x="514" y="140" font-size="13.5" font-weight="500" fill="#1f2b38">name</text><text x="784" y="140" font-size="13" text-anchor="end" font-family="Consolas,monospace" fill="#5b6b7b">string</text><text x="514" y="165" font-size="13.5" font-weight="500" fill="#1f2b38">email</text><text x="784" y="165" font-size="13" text-anchor="end" font-family="Consolas,monospace" fill="#5b6b7b">string</text><text x="514" y="190" font-size="13.5" font-weight="500" fill="#1f2b38">state</text><text x="784" y="190" font-size="13" text-anchor="end" font-family="Consolas,monospace" fill="#5b6b7b">string</text><text x="514" y="215" font-size="13.5" font-weight="500" fill="#1f2b38">wishlist</text><text x="784" y="215" font-size="13" text-anchor="end" font-family="Consolas,monospace" fill="#5b6b7b">string</text><text x="514" y="240" font-size="13.5" font-weight="500" fill="#1f2b38">creditCard</text><text x="784" y="240" font-size="13" text-anchor="end" font-family="Consolas,monospace" fill="#5b6b7b">string</text><g filter="url(#sh)"><rect x="480" y="470" width="320" height="249" rx="10" fill="#ffffff" stroke="#dbe3ec" stroke-width="1.3"/></g><path d="M480,482 a10,10 0 0 1 10,-10 h300 a10,10 0 0 1 10,10 v26 h-320 z" fill="#eef2f7"/><line x1="480" y1="508" x2="800" y2="508" stroke="#dbe3ec" stroke-width="1.1"/><circle cx="494" cy="483" r="1.5" fill="#94a3b8"/><circle cx="494" cy="489" r="1.5" fill="#94a3b8"/><circle cx="494" cy="495" r="1.5" fill="#94a3b8"/><circle cx="498" cy="483" r="1.5" fill="#94a3b8"/><circle cx="498" cy="489" r="1.5" fill="#94a3b8"/><circle cx="498" cy="495" r="1.5" fill="#94a3b8"/><text x="510" y="495" font-size="15" font-weight="700" fill="#0f172a">products</text><g stroke="#16a34a" stroke-width="1.6" fill="none" stroke-linecap="round"><circle cx="495" cy="526" r="3.1"/><line x1="498" y1="526" x2="505" y2="526"/><line x1="502" y1="526" x2="502" y2="529"/><line x1="505" y1="526" x2="505" y2="529"/></g><text x="514" y="530" font-size="13.5" font-weight="600" fill="#1f2b38">_id</text><text x="784" y="530" font-size="13" text-anchor="end" font-family="Consolas,monospace" fill="#94a3b8">{}</text><text x="514" y="555" font-size="13.5" font-weight="500" fill="#1f2b38">productId</text><text x="784" y="555" font-size="13" text-anchor="end" font-family="Consolas,monospace" fill="#5b6b7b">string</text><text x="514" y="580" font-size="13.5" font-weight="500" fill="#1f2b38">name</text><text x="784" y="580" font-size="13" text-anchor="end" font-family="Consolas,monospace" fill="#5b6b7b">string</text><text x="514" y="605" font-size="13.5" font-weight="500" fill="#1f2b38">category</text><text x="784" y="605" font-size="13" text-anchor="end" font-family="Consolas,monospace" fill="#5b6b7b">string</text><text x="514" y="630" font-size="13.5" font-weight="500" fill="#1f2b38">vendorName</text><text x="784" y="630" font-size="13" text-anchor="end" font-family="Consolas,monospace" fill="#5b6b7b">string</text><text x="514" y="655" font-size="13.5" font-weight="500" fill="#1f2b38">listPrice</text><text x="784" y="655" font-size="13" text-anchor="end" font-family="Consolas,monospace" fill="#5b6b7b">double</text><text x="514" y="680" font-size="13.5" font-weight="500" fill="#1f2b38">compatibleOs</text><text x="784" y="680" font-size="13" text-anchor="end" font-family="Consolas,monospace" fill="#5b6b7b">string</text><text x="44" y="826" font-size="12.5" font-family="Consolas,monospace" fill="#5b6b7b">- - - string foreign key (no real link) — every cross-collection read is a $lookup</text></svg>