<svg xmlns="http://www.w3.org/2000/svg" viewBox="0 22 880 598" font-family="'Segoe UI', Helvetica, Arial, sans-serif"><defs><filter id="sh" x="-6%" y="-6%" width="112%" height="115%"><feDropShadow dx="0" dy="2" stdDeviation="4" flood-color="#14532d" flood-opacity="0.20"/></filter></defs><rect x="0" y="22" width="880" height="598" fill="#ffffff"/><circle cx="314" cy="133" r="3.2" fill="#b45309"/><path d="M314,133 H462 V103 H584" fill="none" stroke="#94a3b8" stroke-width="1.5"/><path d="M584,103 l-9,-4.5 l0,9 z" fill="#94a3b8"/><rect x="334" y="109" width="40" height="19" rx="9" fill="#fff" stroke="#cbd5e1" stroke-width="1"/><text x="354" y="122.5" font-size="11" font-weight="700" text-anchor="middle" fill="#475569" font-family="'Segoe UI', Helvetica, Arial, sans-serif">N:1</text><circle cx="64" cy="296" r="3.2" fill="#b45309"/><path d="M64,296 H44 V111 H64" fill="none" stroke="#94a3b8" stroke-width="1.5"/><path d="M64,111 l-9,-4.5 l0,9 z" fill="#94a3b8"/><rect x="2" y="193.5" width="40" height="19" rx="9" fill="#fff" stroke="#cbd5e1" stroke-width="1"/><text x="22" y="207" font-size="11" font-weight="700" text-anchor="middle" fill="#475569" font-family="'Segoe UI', Helvetica, Arial, sans-serif">N:1</text><circle cx="314" cy="318" r="3.2" fill="#b45309"/><path d="M314,318 H492 V373 H584" fill="none" stroke="#94a3b8" stroke-width="1.5"/><path d="M584,373 l-9,-4.5 l0,9 z" fill="#94a3b8"/><rect x="334" y="294" width="40" height="19" rx="9" fill="#fff" stroke="#cbd5e1" stroke-width="1"/><text x="354" y="307.5" font-size="11" font-weight="700" text-anchor="middle" fill="#475569" font-family="'Segoe UI', Helvetica, Arial, sans-serif">N:1</text><circle cx="314" cy="503" r="3.2" fill="#b45309"/><path d="M314,503 H442 V119 H584" fill="none" stroke="#94a3b8" stroke-width="1.5"/><path d="M584,119 l-9,-4.5 l0,9 z" fill="#94a3b8"/><rect x="334" y="479" width="40" height="19" rx="9" fill="#fff" stroke="#cbd5e1" stroke-width="1"/><text x="354" y="492.5" font-size="11" font-weight="700" text-anchor="middle" fill="#475569" font-family="'Segoe UI', Helvetica, Arial, sans-serif">N:1</text><circle cx="314" cy="525" r="3.2" fill="#b45309"/><path d="M314,525 H512 V389 H584" fill="none" stroke="#94a3b8" stroke-width="1.5"/><path d="M584,389 l-9,-4.5 l0,9 z" fill="#94a3b8"/><rect x="334" y="501" width="40" height="19" rx="9" fill="#fff" stroke="#cbd5e1" stroke-width="1"/><text x="354" y="514.5" font-size="11" font-weight="700" text-anchor="middle" fill="#475569" font-family="'Segoe UI', Helvetica, Arial, sans-serif">N:1</text><rect x="64" y="40" width="250" height="160" rx="4" fill="#18e074" stroke="#0c8f4c" stroke-width="1.5" filter="url(#sh)"/><text x="78" y="70" font-size="15.5" font-weight="800" fill="#08321d">orders</text><circle cx="88" cy="89" r="2.5" fill="#0a3a20"/><text x="100" y="93" font-size="13.5" fill="#0d3a22">_id</text><circle cx="88" cy="111" r="2.5" fill="#0a3a20"/><text x="100" y="115" font-size="13.5" fill="#0d3a22">orderId</text><circle cx="88" cy="133" r="2.5" fill="#0a3a20"/><text x="100" y="137" font-size="13.5" fill="#0d3a22">customerId</text><circle cx="88" cy="155" r="2.5" fill="#0a3a20"/><text x="100" y="159" font-size="13.5" fill="#0d3a22">orderDate</text><circle cx="88" cy="177" r="2.5" fill="#0a3a20"/><text x="100" y="181" font-size="13.5" fill="#0d3a22">status</text><rect x="64" y="225" width="250" height="160" rx="4" fill="#18e074" stroke="#0c8f4c" stroke-width="1.5" filter="url(#sh)"/><text x="78" y="255" font-size="15.5" font-weight="800" fill="#08321d">orderLines</text><circle cx="88" cy="274" r="2.5" fill="#0a3a20"/><text x="100" y="278" font-size="13.5" fill="#0d3a22">_id</text><circle cx="88" cy="296" r="2.5" fill="#0a3a20"/><text x="100" y="300" font-size="13.5" fill="#0d3a22">orderId</text><circle cx="88" cy="318" r="2.5" fill="#0a3a20"/><text x="100" y="322" font-size="13.5" fill="#0d3a22">productId</text><circle cx="88" cy="340" r="2.5" fill="#0a3a20"/><text x="100" y="344" font-size="13.5" fill="#0d3a22">quantity</text><circle cx="88" cy="362" r="2.5" fill="#0a3a20"/><text x="100" y="366" font-size="13.5" fill="#0d3a22">listPrice</text><rect x="64" y="410" width="250" height="182" rx="4" fill="#18e074" stroke="#0c8f4c" stroke-width="1.5" filter="url(#sh)"/><text x="78" y="440" font-size="15.5" font-weight="800" fill="#08321d">reviews</text><circle cx="88" cy="459" r="2.5" fill="#0a3a20"/><text x="100" y="463" font-size="13.5" fill="#0d3a22">_id</text><circle cx="88" cy="481" r="2.5" fill="#0a3a20"/><text x="100" y="485" font-size="13.5" fill="#0d3a22">reviewId</text><circle cx="88" cy="503" r="2.5" fill="#0a3a20"/><text x="100" y="507" font-size="13.5" fill="#0d3a22">authorId</text><circle cx="88" cy="525" r="2.5" fill="#0a3a20"/><text x="100" y="529" font-size="13.5" fill="#0d3a22">productId</text><circle cx="88" cy="547" r="2.5" fill="#0a3a20"/><text x="100" y="551" font-size="13.5" fill="#0d3a22">rating</text><circle cx="88" cy="569" r="2.5" fill="#0a3a20"/><text x="100" y="573" font-size="13.5" fill="#0d3a22">content</text><rect x="584" y="40" width="255" height="204" rx="4" fill="#18e074" stroke="#0c8f4c" stroke-width="1.5" filter="url(#sh)"/><text x="598" y="70" font-size="15.5" font-weight="800" fill="#08321d">customers</text><circle cx="608" cy="89" r="2.5" fill="#0a3a20"/><text x="620" y="93" font-size="13.5" fill="#0d3a22">_id</text><circle cx="608" cy="111" r="2.5" fill="#0a3a20"/><text x="620" y="115" font-size="13.5" fill="#0d3a22">customerId</text><circle cx="608" cy="133" r="2.5" fill="#0a3a20"/><text x="620" y="137" font-size="13.5" fill="#0d3a22">name</text><circle cx="608" cy="155" r="2.5" fill="#0a3a20"/><text x="620" y="159" font-size="13.5" fill="#0d3a22">email</text><circle cx="608" cy="177" r="2.5" fill="#0a3a20"/><text x="620" y="181" font-size="13.5" fill="#0d3a22">state</text><circle cx="608" cy="199" r="2.5" fill="#0a3a20"/><text x="620" y="203" font-size="13.5" fill="#0d3a22">wishlist</text><circle cx="608" cy="221" r="2.5" fill="#0a3a20"/><text x="620" y="225" font-size="13.5" fill="#0d3a22">creditCard</text><rect x="584" y="310" width="255" height="204" rx="4" fill="#18e074" stroke="#0c8f4c" stroke-width="1.5" filter="url(#sh)"/><text x="598" y="340" font-size="15.5" font-weight="800" fill="#08321d">products</text><circle cx="608" cy="359" r="2.5" fill="#0a3a20"/><text x="620" y="363" font-size="13.5" fill="#0d3a22">_id</text><circle cx="608" cy="381" r="2.5" fill="#0a3a20"/><text x="620" y="385" font-size="13.5" fill="#0d3a22">productId</text><circle cx="608" cy="403" r="2.5" fill="#0a3a20"/><text x="620" y="407" font-size="13.5" fill="#0d3a22">name</text><circle cx="608" cy="425" r="2.5" fill="#0a3a20"/><text x="620" y="429" font-size="13.5" fill="#0d3a22">category</text><circle cx="608" cy="447" r="2.5" fill="#0a3a20"/><text x="620" y="451" font-size="13.5" fill="#0d3a22">vendorName</text><circle cx="608" cy="469" r="2.5" fill="#0a3a20"/><text x="620" y="473" font-size="13.5" fill="#0d3a22">listPrice</text><circle cx="608" cy="491" r="2.5" fill="#0a3a20"/><text x="620" y="495" font-size="13.5" fill="#0d3a22">compatibleOs</text></svg>