<svg xmlns="http://www.w3.org/2000/svg" viewBox="0 22 1180 568" font-family="'Segoe UI', Helvetica, Arial, sans-serif"><defs><filter id="sh" x="-8%" y="-8%" width="116%" height="122%"><feDropShadow dx="0" dy="3" stdDeviation="5" flood-color="#1e293b" flood-opacity="0.10"/></filter></defs><rect x="0" y="22" width="1180" height="568" fill="#f8fafc"/><circle cx="325" cy="118" r="3.2" fill="#2563eb"/><path d="M325,118 H360 V85 H470" fill="none" stroke="#94a3b8" stroke-width="1.5"/><path d="M470,85 l-9,-4.5 l0,9 z" fill="#94a3b8"/><rect x="345" y="94" width="40" height="19" rx="9" fill="#fff" stroke="#cbd5e1" stroke-width="1"/><text x="365" y="107.5" font-size="11" font-weight="700" text-anchor="middle" fill="#475569" font-family="'Segoe UI', Helvetica, Arial, sans-serif">N:1</text><circle cx="325" cy="218" r="3.2" fill="#2563eb"/><path d="M325,218 H400 V369 H470" fill="none" stroke="#94a3b8" stroke-width="1.5"/><path d="M470,369 l-9,-4.5 l0,9 z" fill="#94a3b8"/><rect x="345" y="194" width="40" height="19" rx="9" fill="#fff" stroke="#cbd5e1" stroke-width="1"/><text x="365" y="207.5" font-size="11" font-weight="700" text-anchor="middle" fill="#475569" font-family="'Segoe UI', Helvetica, Arial, sans-serif">N:N</text><circle cx="325" cy="424" r="3.2" fill="#2563eb"/><path d="M325,424 H432 V101 H470" fill="none" stroke="#94a3b8" stroke-width="1.5"/><path d="M470,101 l-9,-4.5 l0,9 z" fill="#94a3b8"/><rect x="345" y="400" width="40" height="19" rx="9" fill="#fff" stroke="#cbd5e1" stroke-width="1"/><text x="365" y="413.5" font-size="11" font-weight="700" text-anchor="middle" fill="#475569" font-family="'Segoe UI', Helvetica, Arial, sans-serif">N:1</text><circle cx="325" cy="449" r="3.2" fill="#2563eb"/><path d="M325,449 H380 V385 H470" fill="none" stroke="#94a3b8" stroke-width="1.5"/><path d="M470,385 l-9,-4.5 l0,9 z" fill="#94a3b8"/><rect x="345" y="425" width="40" height="19" rx="9" fill="#fff" stroke="#cbd5e1" stroke-width="1"/><text x="365" y="438.5" font-size="11" font-weight="700" text-anchor="middle" fill="#475569" font-family="'Segoe UI', Helvetica, Arial, sans-serif">N:1</text><circle cx="755" cy="477" r="3.2" fill="#2563eb"/><path d="M755,477 H793 V439 H830" fill="none" stroke="#94a3b8" stroke-width="1.5"/><path d="M830,439 l-9,-4.5 l0,9 z" fill="#94a3b8"/><rect x="775" y="453" width="40" height="19" rx="9" fill="#fff" stroke="#cbd5e1" stroke-width="1"/><text x="795" y="466.5" font-size="11" font-weight="700" text-anchor="middle" fill="#475569" font-family="'Segoe UI', Helvetica, Arial, sans-serif">N:1</text><circle cx="755" cy="168" r="3.2" fill="#2563eb"/><path d="M755,168 H785 V377 H755" fill="none" stroke="#94a3b8" stroke-width="1.5"/><path d="M755,377 l9,-4.5 l0,9 z" fill="#94a3b8"/><rect x="775" y="144" width="40" height="19" rx="9" fill="#fff" stroke="#cbd5e1" stroke-width="1"/><text x="795" y="157.5" font-size="11" font-weight="700" text-anchor="middle" fill="#475569" font-family="'Segoe UI', Helvetica, Arial, sans-serif">N:N</text><circle cx="1115" cy="489" r="3.2" fill="#2563eb"/><path d="M1115,489 H1150 V439 H1115" fill="none" stroke="#94a3b8" stroke-width="1.5"/><path d="M1115,439 l9,-4.5 l0,9 z" fill="#94a3b8"/><rect x="1135" y="465" width="40" height="19" rx="9" fill="#fff" stroke="#cbd5e1" stroke-width="1"/><text x="1155" y="478.5" font-size="11" font-weight="700" text-anchor="middle" fill="#475569" font-family="'Segoe UI', Helvetica, Arial, sans-serif">tree</text><rect x="40" y="46" width="285" height="252" rx="11" fill="#ffffff" stroke="#e6ebf2" stroke-width="1.3" filter="url(#sh)"/><circle cx="58" cy="66" r="5" fill="#00a35c"/><text x="72" y="71" font-size="15" font-weight="800" fill="#0f172a" font-family="'Segoe UI', Helvetica, Arial, sans-serif">orders</text><line x1="40" y1="84" x2="325" y2="84" stroke="#eef2f7" stroke-width="1.2"/><line x1="67" y1="205" x2="67" y2="276" stroke="#dbe3ec" stroke-width="1.2"/><text x="60" y="97" font-size="13" font-family="Consolas, 'Courier New', monospace" font-weight="700" fill="#1f2b38">_id</text><text x="309" y="97" font-size="12.5" font-family="Consolas, 'Courier New', monospace" text-anchor="end" fill="#64748b">ObjectId</text><text x="60" y="122" font-size="13" font-family="Consolas, 'Courier New', monospace" font-weight="500" fill="#2563eb">customerId</text><text x="309" y="122" font-size="12.5" font-family="Consolas, 'Courier New', monospace" text-anchor="end" fill="#2563eb">ref</text><text x="60" y="147" font-size="13" font-family="Consolas, 'Courier New', monospace" font-weight="500" fill="#1f2b38">orderDate</text><text x="309" y="147" font-size="12.5" font-family="Consolas, 'Courier New', monospace" text-anchor="end" fill="#64748b">date</text><text x="60" y="172" font-size="13" font-family="Consolas, 'Courier New', monospace" font-weight="500" fill="#1f2b38">status</text><text x="309" y="172" font-size="12.5" font-family="Consolas, 'Courier New', monospace" text-anchor="end" fill="#64748b">string</text><text x="60" y="197" font-size="13" font-family="Consolas, 'Courier New', monospace" font-weight="500" fill="#1f2b38">items</text><text x="309" y="197" font-size="12.5" font-family="Consolas, 'Courier New', monospace" text-anchor="end" fill="#94a3b8">[ ]</text><text x="78" y="222" font-size="13" font-family="Consolas, 'Courier New', monospace" font-weight="500" fill="#2563eb">productId</text><text x="309" y="222" font-size="12.5" font-family="Consolas, 'Courier New', monospace" text-anchor="end" fill="#2563eb">ref</text><text x="78" y="247" font-size="13" font-family="Consolas, 'Courier New', monospace" font-weight="500" fill="#475569">quantity</text><text x="309" y="247" font-size="12.5" font-family="Consolas, 'Courier New', monospace" text-anchor="end" fill="#64748b">int</text><text x="78" y="272" font-size="13" font-family="Consolas, 'Courier New', monospace" font-weight="500" fill="#475569">listPrice</text><text x="309" y="272" font-size="12.5" font-family="Consolas, 'Courier New', monospace" text-anchor="end" fill="#64748b">double</text><rect x="40" y="352" width="285" height="177" rx="11" fill="#ffffff" stroke="#e6ebf2" stroke-width="1.3" filter="url(#sh)"/><circle cx="58" cy="372" r="5" fill="#d97706"/><text x="72" y="377" font-size="15" font-weight="800" fill="#0f172a" font-family="'Segoe UI', Helvetica, Arial, sans-serif">reviews</text><line x1="40" y1="390" x2="325" y2="390" stroke="#eef2f7" stroke-width="1.2"/><text x="60" y="403" font-size="13" font-family="Consolas, 'Courier New', monospace" font-weight="700" fill="#1f2b38">_id</text><text x="309" y="403" font-size="12.5" font-family="Consolas, 'Courier New', monospace" text-anchor="end" fill="#64748b">ObjectId</text><text x="60" y="428" font-size="13" font-family="Consolas, 'Courier New', monospace" font-weight="500" fill="#2563eb">authorId</text><text x="309" y="428" font-size="12.5" font-family="Consolas, 'Courier New', monospace" text-anchor="end" fill="#2563eb">ref</text><text x="60" y="453" font-size="13" font-family="Consolas, 'Courier New', monospace" font-weight="500" fill="#2563eb">productId</text><text x="309" y="453" font-size="12.5" font-family="Consolas, 'Courier New', monospace" text-anchor="end" fill="#2563eb">ref</text><text x="60" y="478" font-size="13" font-family="Consolas, 'Courier New', monospace" font-weight="500" fill="#1f2b38">rating</text><text x="309" y="478" font-size="12.5" font-family="Consolas, 'Courier New', monospace" text-anchor="end" fill="#64748b">int</text><text x="60" y="503" font-size="13" font-family="Consolas, 'Courier New', monospace" font-weight="500" fill="#1f2b38">authorName</text><text x="309" y="503" font-size="12.5" font-family="Consolas, 'Courier New', monospace" text-anchor="end" fill="#64748b">string</text><rect x="470" y="46" width="285" height="227" rx="11" fill="#ffffff" stroke="#e6ebf2" stroke-width="1.3" filter="url(#sh)"/><circle cx="488" cy="66" r="5" fill="#2563eb"/><text x="502" y="71" font-size="15" font-weight="800" fill="#0f172a" font-family="'Segoe UI', Helvetica, Arial, sans-serif">customers</text><line x1="470" y1="84" x2="755" y2="84" stroke="#eef2f7" stroke-width="1.2"/><line x1="497" y1="205" x2="497" y2="251" stroke="#dbe3ec" stroke-width="1.2"/><text x="490" y="97" font-size="13" font-family="Consolas, 'Courier New', monospace" font-weight="700" fill="#1f2b38">_id</text><text x="739" y="97" font-size="12.5" font-family="Consolas, 'Courier New', monospace" text-anchor="end" fill="#64748b">ObjectId</text><text x="490" y="122" font-size="13" font-family="Consolas, 'Courier New', monospace" font-weight="500" fill="#1f2b38">name</text><text x="739" y="122" font-size="12.5" font-family="Consolas, 'Courier New', monospace" text-anchor="end" fill="#64748b">string</text><text x="490" y="147" font-size="13" font-family="Consolas, 'Courier New', monospace" font-weight="500" fill="#1f2b38">email</text><text x="739" y="147" font-size="12.5" font-family="Consolas, 'Courier New', monospace" text-anchor="end" fill="#64748b">string</text><text x="490" y="172" font-size="13" font-family="Consolas, 'Courier New', monospace" font-weight="500" fill="#2563eb">wishlistProductIds</text><text x="739" y="172" font-size="12.5" font-family="Consolas, 'Courier New', monospace" text-anchor="end" fill="#2563eb">ref [ ]</text><text x="490" y="197" font-size="13" font-family="Consolas, 'Courier New', monospace" font-weight="500" fill="#1f2b38">card</text><text x="739" y="197" font-size="12.5" font-family="Consolas, 'Courier New', monospace" text-anchor="end" fill="#94a3b8">{ }</text><text x="508" y="222" font-size="13" font-family="Consolas, 'Courier New', monospace" font-weight="500" fill="#475569">last4</text><text x="739" y="222" font-size="12.5" font-family="Consolas, 'Courier New', monospace" text-anchor="end" fill="#64748b">string</text><text x="508" y="247" font-size="13" font-family="Consolas, 'Courier New', monospace" font-weight="500" fill="#475569">token</text><text x="739" y="247" font-size="12.5" font-family="Consolas, 'Courier New', monospace" text-anchor="end" fill="#64748b">string</text><rect x="470" y="330" width="285" height="227" rx="11" fill="#ffffff" stroke="#e6ebf2" stroke-width="1.3" filter="url(#sh)"/><circle cx="488" cy="350" r="5" fill="#7c3aed"/><text x="502" y="355" font-size="15" font-weight="800" fill="#0f172a" font-family="'Segoe UI', Helvetica, Arial, sans-serif">products</text><line x1="470" y1="368" x2="755" y2="368" stroke="#eef2f7" stroke-width="1.2"/><line x1="497" y1="514" x2="497" y2="535" stroke="#dbe3ec" stroke-width="1.2"/><text x="490" y="381" font-size="13" font-family="Consolas, 'Courier New', monospace" font-weight="700" fill="#1f2b38">_id</text><text x="739" y="381" font-size="12.5" font-family="Consolas, 'Courier New', monospace" text-anchor="end" fill="#64748b">ObjectId</text><text x="490" y="406" font-size="13" font-family="Consolas, 'Courier New', monospace" font-weight="500" fill="#1f2b38">name</text><text x="739" y="406" font-size="12.5" font-family="Consolas, 'Courier New', monospace" text-anchor="end" fill="#64748b">string</text><text x="490" y="431" font-size="13" font-family="Consolas, 'Courier New', monospace" font-weight="500" fill="#1f2b38">listPrice</text><text x="739" y="431" font-size="12.5" font-family="Consolas, 'Courier New', monospace" text-anchor="end" fill="#64748b">double</text><text x="490" y="456" font-size="13" font-family="Consolas, 'Courier New', monospace" font-weight="500" fill="#1f2b38">productType</text><text x="739" y="456" font-size="12.5" font-family="Consolas, 'Courier New', monospace" text-anchor="end" fill="#64748b">string</text><text x="490" y="481" font-size="13" font-family="Consolas, 'Courier New', monospace" font-weight="500" fill="#2563eb">categoryId</text><text x="739" y="481" font-size="12.5" font-family="Consolas, 'Courier New', monospace" text-anchor="end" fill="#2563eb">ref</text><text x="490" y="506" font-size="13" font-family="Consolas, 'Courier New', monospace" font-weight="500" fill="#1f2b38">spec</text><text x="739" y="506" font-size="12.5" font-family="Consolas, 'Courier New', monospace" text-anchor="end" fill="#94a3b8">{ }</text><text x="508" y="531" font-size="13" font-family="Consolas, 'Courier New', monospace" font-weight="500" fill="#475569">weightKg</text><text x="739" y="531" font-size="12.5" font-family="Consolas, 'Courier New', monospace" text-anchor="end" fill="#64748b">double</text><rect x="830" y="392" width="285" height="177" rx="11" fill="#ffffff" stroke="#e6ebf2" stroke-width="1.3" filter="url(#sh)"/><circle cx="848" cy="412" r="5" fill="#0891b2"/><text x="862" y="417" font-size="15" font-weight="800" fill="#0f172a" font-family="'Segoe UI', Helvetica, Arial, sans-serif">categories</text><line x1="830" y1="430" x2="1115" y2="430" stroke="#eef2f7" stroke-width="1.2"/><text x="850" y="443" font-size="13" font-family="Consolas, 'Courier New', monospace" font-weight="700" fill="#1f2b38">_id</text><text x="1099" y="443" font-size="12.5" font-family="Consolas, 'Courier New', monospace" text-anchor="end" fill="#64748b">ObjectId</text><text x="850" y="468" font-size="13" font-family="Consolas, 'Courier New', monospace" font-weight="500" fill="#1f2b38">name</text><text x="1099" y="468" font-size="12.5" font-family="Consolas, 'Courier New', monospace" text-anchor="end" fill="#64748b">string</text><text x="850" y="493" font-size="13" font-family="Consolas, 'Courier New', monospace" font-weight="500" fill="#2563eb">parentId</text><text x="1099" y="493" font-size="12.5" font-family="Consolas, 'Courier New', monospace" text-anchor="end" fill="#2563eb">ref</text><text x="850" y="518" font-size="13" font-family="Consolas, 'Courier New', monospace" font-weight="500" fill="#2563eb">ancestors</text><text x="1099" y="518" font-size="12.5" font-family="Consolas, 'Courier New', monospace" text-anchor="end" fill="#2563eb">ref [ ]</text><text x="850" y="543" font-size="13" font-family="Consolas, 'Courier New', monospace" font-weight="500" fill="#1f2b38">path</text><text x="1099" y="543" font-size="12.5" font-family="Consolas, 'Courier New', monospace" text-anchor="end" fill="#64748b">string</text></svg>