<svg xmlns="http://www.w3.org/2000/svg" viewBox="0 0 880 850" font-family="'Segoe UI', Helvetica, Arial, sans-serif"><defs><pattern id="dots" width="20" height="20" patternUnits="userSpaceOnUse"><circle cx="2" cy="2" r="1.1" fill="#dde5ee"/></pattern><filter id="sh" x="-8%" y="-8%" width="116%" height="124%"><feDropShadow dx="0" dy="3" stdDeviation="6" flood-color="#1e293b" flood-opacity="0.10"/></filter></defs><rect width="880" height="850" fill="#f7f9fc"/><rect width="880" height="850" fill="url(#dots)"/><path d="M344,111 H400 V86 H480" fill="none" stroke="#94a3b8" stroke-width="1.5"/><line x1="474" y1="81" x2="474" y2="91" stroke="#94a3b8" stroke-width="1.5"/><line x1="350" y1="107" x2="350" y2="115" stroke="#94a3b8" stroke-width="1.5"/><path d="M344,211 H424 V376 H480" fill="none" stroke="#94a3b8" stroke-width="1.5"/><line x1="474" y1="371" x2="474" y2="381" stroke="#94a3b8" stroke-width="1.5"/><line x1="350" y1="207" x2="350" y2="215" stroke="#94a3b8" stroke-width="1.5"/><path d="M344,461 H388 V86 H480" fill="none" stroke="#94a3b8" stroke-width="1.5"/><line x1="474" y1="81" x2="474" y2="91" stroke="#94a3b8" stroke-width="1.5"/><line x1="350" y1="457" x2="350" y2="465" stroke="#94a3b8" stroke-width="1.5"/><path d="M344,486 H412 V376 H480" fill="none" stroke="#94a3b8" stroke-width="1.5"/><line x1="474" y1="371" x2="474" y2="381" stroke="#94a3b8" stroke-width="1.5"/><line x1="350" y1="482" x2="350" y2="490" stroke="#94a3b8" stroke-width="1.5"/><path d="M800,526 H828 V676 H800" fill="none" stroke="#94a3b8" stroke-width="1.5"/><line x1="806" y1="671" x2="806" y2="681" stroke="#94a3b8" stroke-width="1.5"/><line x1="806" y1="522" x2="806" y2="530" stroke="#94a3b8" stroke-width="1.5"/><path d="M800,726 H846 V676 H800" fill="none" stroke="#94a3b8" stroke-width="1.5"/><line x1="806" y1="671" x2="806" y2="681" stroke="#94a3b8" stroke-width="1.5"/><line x1="806" y1="722" x2="806" y2="730" stroke="#94a3b8" stroke-width="1.5"/><g filter="url(#sh)"><rect x="44" y="30" width="300" height="299" rx="10" fill="#ffffff" stroke="#dbe3ec" stroke-width="1.3"/></g><path d="M44,42 a10,10 0 0 1 10,-10 h280 a10,10 0 0 1 10,10 v26 h-300 z" fill="#eef2f7"/><line x1="44" y1="68" x2="344" y2="68" stroke="#dbe3ec" stroke-width="1.1"/><circle cx="58" cy="43" r="1.5" fill="#94a3b8"/><circle cx="58" cy="49" r="1.5" fill="#94a3b8"/><circle cx="58" cy="55" r="1.5" fill="#94a3b8"/><circle cx="62" cy="43" r="1.5" fill="#94a3b8"/><circle cx="62" cy="49" r="1.5" fill="#94a3b8"/><circle cx="62" cy="55" r="1.5" fill="#94a3b8"/><text x="74" y="55" font-size="15" font-weight="700" fill="#0f172a">orders</text><g stroke="#16a34a" stroke-width="1.6" fill="none" stroke-linecap="round"><circle cx="59" cy="86" r="3.1"/><line x1="62" y1="86" x2="69" y2="86"/><line x1="66" y1="86" x2="66" y2="89"/><line x1="69" y1="86" x2="69" y2="89"/></g><text x="78" y="90" font-size="13.5" font-weight="600" fill="#1f2b38">_id</text><text x="328" y="90" font-size="13" text-anchor="end" font-family="Consolas,monospace" fill="#5b6b7b">string</text><g stroke="#0d9488" stroke-width="1.6" fill="none"><circle cx="59" cy="111" r="3"/><circle cx="65" cy="111" r="3"/></g><text x="78" y="115" font-size="13.5" font-weight="500" fill="#1f2b38">customerId</text><text x="328" y="115" font-size="13" text-anchor="end" font-family="Consolas,monospace" fill="#5b6b7b">string</text><text x="78" y="140" font-size="13.5" font-weight="500" fill="#1f2b38">orderDate</text><text x="328" y="140" font-size="13" text-anchor="end" font-family="Consolas,monospace" fill="#5b6b7b">date</text><text x="78" y="165" font-size="13.5" font-weight="500" fill="#1f2b38">status</text><text x="328" y="165" font-size="13" text-anchor="end" font-family="Consolas,monospace" fill="#5b6b7b">string</text><text x="78" y="190" font-size="13.5" font-weight="500" fill="#1f2b38">items</text><text x="328" y="190" font-size="13" text-anchor="end" font-family="Consolas,monospace" fill="#94a3b8">[]</text><g stroke="#0d9488" stroke-width="1.6" fill="none"><circle cx="75" cy="211" r="3"/><circle cx="81" cy="211" r="3"/></g><text x="94" y="215" font-size="13.5" font-weight="400" fill="#516170">productId</text><text x="328" y="215" font-size="13" text-anchor="end" font-family="Consolas,monospace" fill="#5b6b7b">string</text><text x="94" y="240" font-size="13.5" font-weight="400" fill="#516170">name</text><text x="328" y="240" font-size="13" text-anchor="end" font-family="Consolas,monospace" fill="#5b6b7b">string</text><text x="94" y="265" font-size="13.5" font-weight="400" fill="#516170">quantity</text><text x="328" y="265" font-size="13" text-anchor="end" font-family="Consolas,monospace" fill="#5b6b7b">int</text><text x="94" y="290" font-size="13.5" font-weight="400" fill="#516170">listPrice</text><text x="328" y="290" font-size="13" text-anchor="end" font-family="Consolas,monospace" fill="#5b6b7b">double</text><g filter="url(#sh)"><rect x="44" y="380" width="300" height="199" rx="10" fill="#ffffff" stroke="#dbe3ec" stroke-width="1.3"/></g><path d="M44,392 a10,10 0 0 1 10,-10 h280 a10,10 0 0 1 10,10 v26 h-300 z" fill="#eef2f7"/><line x1="44" y1="418" x2="344" y2="418" stroke="#dbe3ec" stroke-width="1.1"/><circle cx="58" cy="393" r="1.5" fill="#94a3b8"/><circle cx="58" cy="399" r="1.5" fill="#94a3b8"/><circle cx="58" cy="405" r="1.5" fill="#94a3b8"/><circle cx="62" cy="393" r="1.5" fill="#94a3b8"/><circle cx="62" cy="399" r="1.5" fill="#94a3b8"/><circle cx="62" cy="405" r="1.5" fill="#94a3b8"/><text x="74" y="405" font-size="15" font-weight="700" fill="#0f172a">reviews</text><g stroke="#16a34a" stroke-width="1.6" fill="none" stroke-linecap="round"><circle cx="59" cy="436" r="3.1"/><line x1="62" y1="436" x2="69" y2="436"/><line x1="66" y1="436" x2="66" y2="439"/><line x1="69" y1="436" x2="69" y2="439"/></g><text x="78" y="440" font-size="13.5" font-weight="600" fill="#1f2b38">_id</text><text x="328" y="440" font-size="13" text-anchor="end" font-family="Consolas,monospace" fill="#5b6b7b">string</text><g stroke="#0d9488" stroke-width="1.6" fill="none"><circle cx="59" cy="461" r="3"/><circle cx="65" cy="461" r="3"/></g><text x="78" y="465" font-size="13.5" font-weight="500" fill="#1f2b38">authorId</text><text x="328" y="465" font-size="13" text-anchor="end" font-family="Consolas,monospace" fill="#5b6b7b">string</text><g stroke="#0d9488" stroke-width="1.6" fill="none"><circle cx="59" cy="486" r="3"/><circle cx="65" cy="486" r="3"/></g><text x="78" y="490" font-size="13.5" font-weight="500" fill="#1f2b38">productId</text><text x="328" y="490" font-size="13" text-anchor="end" font-family="Consolas,monospace" fill="#5b6b7b">string</text><text x="78" y="515" font-size="13.5" font-weight="500" fill="#1f2b38">rating</text><text x="328" y="515" font-size="13" text-anchor="end" font-family="Consolas,monospace" fill="#5b6b7b">int</text><text x="78" y="540" font-size="13.5" font-weight="500" fill="#1f2b38">authorName</text><text x="328" y="540" font-size="13" text-anchor="end" font-family="Consolas,monospace" fill="#5b6b7b">string</text><g filter="url(#sh)"><rect x="480" y="30" width="320" height="249" rx="10" fill="#ffffff" stroke="#dbe3ec" stroke-width="1.3"/></g><path d="M480,42 a10,10 0 0 1 10,-10 h300 a10,10 0 0 1 10,10 v26 h-320 z" fill="#eef2f7"/><line x1="480" y1="68" x2="800" y2="68" stroke="#dbe3ec" stroke-width="1.1"/><circle cx="494" cy="43" r="1.5" fill="#94a3b8"/><circle cx="494" cy="49" r="1.5" fill="#94a3b8"/><circle cx="494" cy="55" r="1.5" fill="#94a3b8"/><circle cx="498" cy="43" r="1.5" fill="#94a3b8"/><circle cx="498" cy="49" r="1.5" fill="#94a3b8"/><circle cx="498" cy="55" r="1.5" fill="#94a3b8"/><text x="510" y="55" font-size="15" font-weight="700" fill="#0f172a">customers</text><g stroke="#16a34a" stroke-width="1.6" fill="none" stroke-linecap="round"><circle cx="495" cy="86" r="3.1"/><line x1="498" y1="86" x2="505" y2="86"/><line x1="502" y1="86" x2="502" y2="89"/><line x1="505" y1="86" x2="505" y2="89"/></g><text x="514" y="90" font-size="13.5" font-weight="600" fill="#1f2b38">_id</text><text x="784" y="90" font-size="13" text-anchor="end" font-family="Consolas,monospace" fill="#5b6b7b">string</text><text x="514" y="115" font-size="13.5" font-weight="500" fill="#1f2b38">name</text><text x="784" y="115" font-size="13" text-anchor="end" font-family="Consolas,monospace" fill="#5b6b7b">string</text><text x="514" y="140" font-size="13.5" font-weight="500" fill="#1f2b38">email</text><text x="784" y="140" font-size="13" text-anchor="end" font-family="Consolas,monospace" fill="#5b6b7b">string</text><g stroke="#0d9488" stroke-width="1.6" fill="none"><circle cx="495" cy="161" r="3"/><circle cx="501" cy="161" r="3"/></g><text x="514" y="165" font-size="13.5" font-weight="500" fill="#1f2b38">wishlistProductIds</text><text x="784" y="165" font-size="13" text-anchor="end" font-family="Consolas,monospace" fill="#94a3b8">[]</text><text x="514" y="190" font-size="13.5" font-weight="500" fill="#1f2b38">card</text><text x="784" y="190" font-size="13" text-anchor="end" font-family="Consolas,monospace" fill="#94a3b8">{}</text><text x="530" y="215" font-size="13.5" font-weight="400" fill="#516170">last4</text><text x="784" y="215" font-size="13" text-anchor="end" font-family="Consolas,monospace" fill="#5b6b7b">string</text><text x="530" y="240" font-size="13.5" font-weight="400" fill="#516170">token</text><text x="784" y="240" font-size="13" text-anchor="end" font-family="Consolas,monospace" fill="#5b6b7b">string</text><g filter="url(#sh)"><rect x="480" y="320" width="320" height="274" rx="10" fill="#ffffff" stroke="#dbe3ec" stroke-width="1.3"/></g><path d="M480,332 a10,10 0 0 1 10,-10 h300 a10,10 0 0 1 10,10 v26 h-320 z" fill="#eef2f7"/><line x1="480" y1="358" x2="800" y2="358" stroke="#dbe3ec" stroke-width="1.1"/><circle cx="494" cy="333" r="1.5" fill="#94a3b8"/><circle cx="494" cy="339" r="1.5" fill="#94a3b8"/><circle cx="494" cy="345" r="1.5" fill="#94a3b8"/><circle cx="498" cy="333" r="1.5" fill="#94a3b8"/><circle cx="498" cy="339" r="1.5" fill="#94a3b8"/><circle cx="498" cy="345" r="1.5" fill="#94a3b8"/><text x="510" y="345" font-size="15" font-weight="700" fill="#0f172a">products</text><g stroke="#16a34a" stroke-width="1.6" fill="none" stroke-linecap="round"><circle cx="495" cy="376" r="3.1"/><line x1="498" y1="376" x2="505" y2="376"/><line x1="502" y1="376" x2="502" y2="379"/><line x1="505" y1="376" x2="505" y2="379"/></g><text x="514" y="380" font-size="13.5" font-weight="600" fill="#1f2b38">_id</text><text x="784" y="380" font-size="13" text-anchor="end" font-family="Consolas,monospace" fill="#5b6b7b">string</text><text x="514" y="405" font-size="13.5" font-weight="500" fill="#1f2b38">name</text><text x="784" y="405" font-size="13" text-anchor="end" font-family="Consolas,monospace" fill="#5b6b7b">string</text><text x="514" y="430" font-size="13.5" font-weight="500" fill="#1f2b38">listPrice</text><text x="784" y="430" font-size="13" text-anchor="end" font-family="Consolas,monospace" fill="#5b6b7b">double</text><text x="514" y="455" font-size="13.5" font-weight="500" fill="#1f2b38">productType</text><text x="784" y="455" font-size="13" text-anchor="end" font-family="Consolas,monospace" fill="#5b6b7b">string</text><text x="514" y="480" font-size="13.5" font-weight="500" fill="#1f2b38">spec</text><text x="784" y="480" font-size="13" text-anchor="end" font-family="Consolas,monospace" fill="#94a3b8">{}</text><text x="514" y="505" font-size="13.5" font-weight="500" fill="#1f2b38">attributes</text><text x="784" y="505" font-size="13" text-anchor="end" font-family="Consolas,monospace" fill="#94a3b8">[]</text><g stroke="#0d9488" stroke-width="1.6" fill="none"><circle cx="495" cy="526" r="3"/><circle cx="501" cy="526" r="3"/></g><text x="514" y="530" font-size="13.5" font-weight="500" fill="#1f2b38">categoryId</text><text x="784" y="530" font-size="13" text-anchor="end" font-family="Consolas,monospace" fill="#5b6b7b">string</text><text x="514" y="555" font-size="13.5" font-weight="500" fill="#1f2b38">avgRating</text><text x="784" y="555" font-size="13" text-anchor="end" font-family="Consolas,monospace" fill="#5b6b7b">double</text><g filter="url(#sh)"><rect x="480" y="620" width="320" height="199" rx="10" fill="#ffffff" stroke="#dbe3ec" stroke-width="1.3"/></g><path d="M480,632 a10,10 0 0 1 10,-10 h300 a10,10 0 0 1 10,10 v26 h-320 z" fill="#eef2f7"/><line x1="480" y1="658" x2="800" y2="658" stroke="#dbe3ec" stroke-width="1.1"/><circle cx="494" cy="633" r="1.5" fill="#94a3b8"/><circle cx="494" cy="639" r="1.5" fill="#94a3b8"/><circle cx="494" cy="645" r="1.5" fill="#94a3b8"/><circle cx="498" cy="633" r="1.5" fill="#94a3b8"/><circle cx="498" cy="639" r="1.5" fill="#94a3b8"/><circle cx="498" cy="645" r="1.5" fill="#94a3b8"/><text x="510" y="645" font-size="15" font-weight="700" fill="#0f172a">categories</text><g stroke="#16a34a" stroke-width="1.6" fill="none" stroke-linecap="round"><circle cx="495" cy="676" r="3.1"/><line x1="498" y1="676" x2="505" y2="676"/><line x1="502" y1="676" x2="502" y2="679"/><line x1="505" y1="676" x2="505" y2="679"/></g><text x="514" y="680" font-size="13.5" font-weight="600" fill="#1f2b38">_id</text><text x="784" y="680" font-size="13" text-anchor="end" font-family="Consolas,monospace" fill="#5b6b7b">string</text><text x="514" y="705" font-size="13.5" font-weight="500" fill="#1f2b38">name</text><text x="784" y="705" font-size="13" text-anchor="end" font-family="Consolas,monospace" fill="#5b6b7b">string</text><g stroke="#0d9488" stroke-width="1.6" fill="none"><circle cx="495" cy="726" r="3"/><circle cx="501" cy="726" r="3"/></g><text x="514" y="730" font-size="13.5" font-weight="500" fill="#1f2b38">parentId</text><text x="784" y="730" font-size="13" text-anchor="end" font-family="Consolas,monospace" fill="#5b6b7b">string</text><text x="514" y="755" font-size="13.5" font-weight="500" fill="#1f2b38">ancestors</text><text x="784" y="755" font-size="13" text-anchor="end" font-family="Consolas,monospace" fill="#94a3b8">[]</text><text x="514" y="780" font-size="13.5" font-weight="500" fill="#1f2b38">path</text><text x="784" y="780" font-size="13" text-anchor="end" font-family="Consolas,monospace" fill="#5b6b7b">string</text><text x="44" y="834" font-size="12.5" font-family="Consolas,monospace" fill="#5b6b7b">embedded items[] · solid line = id reference · categories is a tree (parentId self-ref)</text></svg>